<svg xmlns="http://www.w3.org/2000/svg" viewBox="0 0 200 87.25"><defs><style>.cls-1{isolation:isolate;}.cls-2{mix-blend-mode:multiply;}.cls-3{fill:#b6b9e2;}.cls-4{fill:#0033a1;}.cls-5{font-size:11.79px;}.cls-5,.cls-6,.cls-7{fill:#fff;}.cls-5,.cls-6{font-family:DFHuaZong-W5-WINP-BF, DFPHuaZongW5-B5;}.cls-6{font-size:7.3px;letter-spacing:0.05em;}</style></defs><g class="cls-1"><g id="Layer_2" data-name="Layer 2"><g id="Layer_1-2" data-name="Layer 1"><g class="cls-2"><rect class="cls-3" x="2.68" y="2.68" width="197.32" height="46.98" rx="12"/><path class="cls-3" d="M106.71,84.69c-1.64,3.41-5.74,3.41-7.38,0l-9.15-19L81,46.63c-1.64-3.41.41-7.67,3.69-7.67h36.62c3.28,0,5.33,4.26,3.69,7.67l-9.16,19Z"/></g><rect class="cls-4" width="197.32" height="46.98" rx="12"/><path class="cls-4" d="M104,82c-1.64,3.41-5.74,3.41-7.38,0L87.49,63,78.34,44c-1.64-3.41.41-7.67,3.69-7.67h36.61c3.28,0,5.33,4.26,3.69,7.67l-9.15,19Z"/><text class="cls-5" transform="translate(45.78 24.27)">香港數字資產信貸有限公司</text><text class="cls-6" transform="translate(46.47 31.79)">Hong Kong Digital Asset Credit Limited</text><polygon class="cls-7" points="22.6 21.04 22.6 27.6 26.93 30.1 26.93 23.53 22.6 21.04"/><polygon class="cls-7" points="26.93 23.53 26.93 30.1 41.18 21.87 41.18 15.46 26.93 23.53"/><polygon class="cls-7" points="41.18 31.91 41.18 25.34 35.49 28.62 35.49 28.63 26.93 33.57 26.93 40.14 41.18 31.91"/><polygon class="cls-7" points="26.93 7.22 12.67 15.45 12.67 15.45 18.36 18.73 26.93 13.79 35.45 18.7 41.18 15.46 41.18 15.45 26.93 7.22"/><polygon class="cls-7" points="12.67 31.91 26.93 40.14 26.93 33.57 18.36 28.63 18.36 18.73 18.36 18.73 12.67 15.45 12.67 31.91"/></g></g></g></svg>